<?xml version="1.0" encoding="utf-8"?>
<svg xmlns="http://www.w3.org/2000/svg" viewBox="0 0 14 14" width="140" height="140" shape-rendering="crispEdges">
  <g fill="rgb(255,255,255)">
    <rect x="8" y="1" width="1" height="1" />
    <rect x="9" y="1" width="1" height="1" />
    <rect x="10" y="2" width="1" height="1" />
    <rect x="10" y="3" width="1" height="1" />
    <rect x="1" y="4" width="1" height="1" />
    <rect x="2" y="4" width="1" height="1" />
    <rect x="3" y="4" width="1" height="1" />
    <rect x="4" y="4" width="1" height="1" />
    <rect x="5" y="4" width="1" height="1" />
    <rect x="6" y="4" width="1" height="1" />
    <rect x="7" y="4" width="1" height="1" />
    <rect x="8" y="4" width="1" height="1" />
    <rect x="9" y="4" width="1" height="1" />
    <rect x="11" y="6" width="1" height="1" />
    <rect x="11" y="7" width="1" height="1" />
    <rect x="2" y="8" width="1" height="1" />
    <rect x="3" y="8" width="1" height="1" />
    <rect x="4" y="8" width="1" height="1" />
    <rect x="5" y="8" width="1" height="1" />
    <rect x="6" y="8" width="1" height="1" />
    <rect x="7" y="8" width="1" height="1" />
    <rect x="8" y="8" width="1" height="1" />
    <rect x="9" y="8" width="1" height="1" />
    <rect x="10" y="8" width="1" height="1" />
    <rect x="12" y="10" width="1" height="1" />
    <rect x="12" y="11" width="1" height="1" />
    <rect x="3" y="12" width="1" height="1" />
    <rect x="4" y="12" width="1" height="1" />
    <rect x="5" y="12" width="1" height="1" />
    <rect x="6" y="12" width="1" height="1" />
    <rect x="7" y="12" width="1" height="1" />
    <rect x="8" y="12" width="1" height="1" />
    <rect x="9" y="12" width="1" height="1" />
    <rect x="10" y="12" width="1" height="1" />
    <rect x="11" y="12" width="1" height="1" />
  </g>
</svg>